<?xml version="1.0" encoding="UTF-8" standalone="no"?>
<!DOCTYPE svg PUBLIC "-//W3C//DTD SVG 1.1//EN" "http://www.w3.org/Graphics/SVG/1.1/DTD/svg11.dtd">
<svg width="100%" height="100%" viewBox="0 0 639 639" version="1.1" xmlns="http://www.w3.org/2000/svg" xmlns:xlink="http://www.w3.org/1999/xlink" xml:space="preserve" xmlns:serif="http://www.serif.com/" style="fill-rule:evenodd;clip-rule:evenodd;stroke-linejoin:round;stroke-miterlimit:2;">
    <g transform="matrix(1,0,0,1,-1272.57,-71.0157)">
        <!-- <g transform="matrix(0.979083,0,0,0.979083,-38.8923,-537.705)">
            <circle cx="1665.54" cy="947.78" r="326.055" style="fill:rgb(254,215,102);"/>
        </g> -->
        <g id="Butterfly-Stretch" serif:id="Butterfly Stretch" transform="matrix(0.999947,0.010278,-0.010278,0.999947,21.0731,-542.723)">
            <g id="Legs" transform="matrix(0.804643,-0.108368,0.118199,0.877639,1118.23,577.983)">
                <path d="M630.666,570.027C599.857,569.796 605.9,507.417 632.304,506.172C638.283,505.89 701.648,499.04 709.36,502.506C727.817,507.808 751.96,541.863 746.351,556.487C739.786,573.608 706.471,570.854 691.377,570.492C691.377,570.492 666.972,570.298 630.666,570.027Z" style="fill:rgb(254,182,161);"/>
            </g>
            <g id="Legs1" serif:id="Legs" transform="matrix(-0.749811,-0.311412,0.339663,-0.817833,1777.47,1645.15)">
                <path d="M630.666,570.027C599.857,569.796 605.9,507.417 632.304,506.172C638.283,505.89 701.648,499.04 709.36,502.506C727.817,507.808 745.916,537.042 740.308,551.667C733.743,568.787 706.471,570.854 691.377,570.492C691.377,570.492 666.972,570.298 630.666,570.027Z" style="fill:rgb(254,182,161);"/>
            </g>
            <g id="Pants" transform="matrix(0.652196,-0.393083,0.354225,0.587723,1299.89,816.277)">
                <path d="M200.679,561.883C245.091,576.233 305.643,548.13 325.45,545.224C330.604,544.468 355.53,454.931 340.714,451.612C329.203,449.034 321.319,447.054 305.94,444.602C291.202,442.253 284.561,439.965 273.31,438.356C255.082,435.749 236.925,434.739 218.665,435.014C218.532,435.016 218.398,435.016 218.265,435.014C200.919,434.773 185.882,440.645 170.172,445.89C96.87,470.362 153.747,559.791 200.679,561.883Z" style="fill:rgb(13,91,114);"/>
            </g>
            <g id="Pants1" serif:id="Pants" transform="matrix(-0.71348,-0.26612,-0.239812,0.642949,1813.9,764.559)">
                <path d="M200.679,561.883C245.091,576.233 305.643,548.13 325.45,545.224C330.604,544.468 355.53,454.931 340.714,451.612C329.203,449.034 321.319,447.054 305.94,444.602C291.202,442.253 284.561,439.965 273.31,438.356C255.082,435.749 236.925,434.739 218.665,435.014C218.532,435.016 218.398,435.016 218.265,435.014C200.919,434.773 185.882,440.645 170.172,445.89C96.87,470.362 153.747,559.791 200.679,561.883Z" style="fill:rgb(13,91,114);"/>
            </g>
            <g transform="matrix(0.957473,5.55112e-17,1.11022e-16,1,67.041,-13.5473)">
                <path d="M1655.99,850.43C1656.33,823.777 1640.16,814.25 1614.06,810.563L1542.67,810.563C1507.94,817.921 1499.26,827.208 1500.78,848.91L1517.72,998.467C1514.71,1053.2 1641.25,1055.57 1644.43,998.734L1655.99,850.43Z" style="fill:rgb(253,164,44);"/>
            </g>
            <path d="M1471.68,853.686C1466.72,872.85 1495.46,894.453 1510.61,877.408L1516.45,871.049L1540.73,953.81C1553.54,1000.3 1507.76,1006.15 1496.58,965.675C1496.58,965.675 1478.53,904.175 1468.79,870.976C1467.22,865.626 1467.94,859.865 1470.79,855.068C1471.07,854.593 1471.37,854.132 1471.68,853.686Z" style="fill:rgb(254,182,161);"/>
            <g transform="matrix(0.895988,-0.444079,0.70566,1.42376,-495.144,280.942)">
                <path d="M1478.68,953.715C1478.61,950.207 1480.86,946.838 1484.89,944.414C1488.92,941.989 1494.37,940.725 1499.93,940.925C1511.8,941.35 1524.16,941.793 1524.16,941.793L1525.6,1016.12C1525.39,1046.47 1479.72,1042.25 1479.88,1015.82C1479.88,1015.82 1479.1,975.487 1478.68,953.715Z" style="fill:rgb(254,182,161);"/>
            </g>
            <g transform="matrix(-0.989448,0.144889,0.144889,0.989448,3012.59,-209.455)">
                <path d="M1471.68,853.686C1466.72,872.85 1495.46,894.453 1510.61,877.408L1516.45,871.049L1540.73,953.81C1553.54,1000.3 1507.76,1006.15 1496.58,965.675C1496.58,965.675 1478.53,904.175 1468.79,870.976C1467.22,865.626 1467.94,859.865 1470.79,855.068C1471.07,854.593 1471.37,854.132 1471.68,853.686Z" style="fill:rgb(254,182,161);"/>
            </g>
            <g id="Shirt" transform="matrix(-0.149183,-0.162438,-0.553304,0.508154,1854.9,774.735)">
                <path d="M681.075,265.031C681.075,256.417 584.47,235.433 551.892,232.327C465.888,224.128 386.006,221.744 306.606,230.248C257.09,235.551 208.879,245.574 163.472,267.038C149.676,273.56 278.562,311.555 340.087,311.284L547.944,297.623C579.647,297.623 605.386,290.63 605.386,282.015L681.075,265.031Z" style="fill:rgb(253,164,44);"/>
            </g>
            <g id="Shirt1" serif:id="Shirt" transform="matrix(0.149183,-0.162438,0.553304,0.508154,1300.33,774.855)">
                <path d="M681.075,265.031C681.075,256.417 584.47,235.433 551.892,232.327C465.888,224.128 386.006,221.744 306.606,230.248C257.09,235.551 208.879,245.574 163.472,267.038C149.676,273.56 278.562,311.555 340.087,311.284L547.944,297.623C579.647,297.623 605.386,290.63 605.386,282.015L681.075,265.031Z" style="fill:rgb(253,164,44);"/>
            </g>
            <g transform="matrix(-0.954186,-0.299214,-0.475464,1.51624,3535.18,-34.52)">
                <path d="M1478.68,953.715C1478.61,950.207 1480.86,946.838 1484.89,944.414C1488.92,941.989 1494.37,940.725 1499.93,940.925C1511.8,941.35 1524.16,941.793 1524.16,941.793L1525.6,1016.12C1525.39,1046.47 1479.72,1042.25 1479.88,1015.82C1479.88,1015.82 1479.1,975.487 1478.68,953.715Z" style="fill:rgb(254,182,161);"/>
            </g>
            <g id="Legs2" serif:id="Legs" transform="matrix(0.649692,0.535154,-0.477631,0.579857,1382.79,442.892)">
                <path d="M470.223,561.43C439.419,561.24 438.337,534.14 439.397,519.266C441.102,495.34 459.007,487.523 496.666,494.417C522.436,499.135 540.845,502.508 540.845,502.508C630.543,514.998 700.917,495.757 715.295,502.22C727.944,512.274 706.697,570.492 691.377,570.492C691.377,570.492 631.326,557.146 562.597,570.148C532.918,575.763 501.696,561.625 470.223,561.43Z" style="fill:rgb(254,182,161);"/>
            </g>
            <g id="Legs3" serif:id="Legs" transform="matrix(-0.660194,0.571046,0.49146,0.568184,1808.81,416.495)">
                <path d="M470.223,561.43C439.419,561.24 438.337,534.14 439.397,519.266C441.102,495.34 459.007,487.523 496.666,494.417C522.436,499.135 540.845,502.508 540.845,502.508C630.543,514.998 700.917,495.757 715.295,502.22C727.944,512.274 706.697,570.492 691.377,570.492C691.377,570.492 631.326,557.146 562.597,570.148C532.918,575.763 501.696,561.625 470.223,561.43Z" style="fill:rgb(254,182,161);"/>
            </g>
            <g id="Head" transform="matrix(0.803254,0.118222,-0.118222,0.803254,1330.87,558.252)">
                <circle cx="330.943" cy="180.242" r="59.269" style="fill:rgb(254,182,161);"/>
            </g>
        </g>
    </g>
</svg>
