<svg clip-rule="evenodd" fill-rule="evenodd" stroke-linejoin="round" stroke-miterlimit="2" viewBox="0 0 639 639" xmlns="http://www.w3.org/2000/svg"><circle cx="319.23929982" cy="319.23518574" fill="none" r="319.234907565" stroke-width=".979083"/><g fill="#feb6a1"><path d="m1171.42 942.391c4.38 13.973 13.76 54.214 14.5 57.389.03.133.07.26.11.39 15.5 43.39 14.17 48.37 28.64 62.1 2.35 2.23 11.83 6.63 19.9 3.12 13.84-6.01 24.95-5.52 20.11 12.25-1.66 10.37-61.74 39.13-66.39 29.95-3.23-6.35-19.05-46.72-45.85-79.76-10.46-12.88-19.9-61.178-19.15-59.876 1.22 2.129 29.48-18.118 48.13-25.563z" transform="matrix(.84615024871 .56597464428 -.60232721085 .9005009907 -25.19223166 -1131.08213335)"/><path d="m1171.42 942.391c4.37 13.932 13.7 53.978 14.49 57.36.04.152.08.299.13.449 15.49 43.36 14.16 48.35 28.63 62.07 2.35 2.23 11.83 6.63 19.9 3.12 13.84-6.01 24.95-5.52 20.11 12.25-1.66 10.37-61.74 39.13-66.39 29.95-3.23-6.35-19.05-46.72-45.85-79.76-10.46-12.88-19.9-61.178-19.15-59.876 1.22 2.129 29.48-18.118 48.13-25.563z" transform="matrix(.69248337912 .61672964039 -.64201211812 .72087191659 28.38597299 -999.2071809)"/><path d="m630.666 570.027c-30.809-.231-24.766-62.61 1.638-63.855 5.979-.282 75.279-7.419 82.991-3.952 18.458 5.301 25.583 31.423 19.975 46.048-6.565 17.12-28.799 22.586-43.893 22.224 0 0-24.405-.194-60.711-.465z" transform="matrix(.58721588549 .5350660794 -.5350660794 .58721588549 244.90856659 -312.591107969)"/><path d="m630.666 570.027c-29.106 10.104-24.766-62.61 1.638-63.855 5.979-.282 73.678-10.648 81.39-7.181 12.65 10.054-8.452 47.01-23.771 47.01-4.438 0-27.628 13.046-59.257 24.026z" transform="matrix(-.78582427512 1.1973091296 -.9295109169 -.61006407508 1227.9853134 -90.93927303)"/></g><path d="m200.679 561.883c44.412 14.35 104.964-13.753 124.771-16.659 3.885-.57 19.009-51.601 19.868-78.105.281-8.652-.958-14.69-4.604-15.507-11.511-2.578-19.395-4.558-34.774-7.01-14.738-2.349-21.379-4.637-32.63-6.246-18.228-2.607-36.385-3.617-54.645-3.342-.133.002-.266.002-.4 0-17.346-.242-32.383 5.631-48.093 10.876-73.302 24.472-16.425 113.901 30.507 115.993z" fill="#0d5472" transform="matrix(-.32812153456 .69299162737 -.61289347099 -.2901964921 629.7108299 288.41014949)"/><path d="m200.679 561.883c44.412 14.35 104.964-13.753 124.771-16.659 5.154-.756 30.08-90.293 15.264-93.612-11.511-2.578-19.395-4.558-34.774-7.01-14.738-2.349-21.379-4.637-32.63-6.246-18.228-2.607-36.385-3.617-54.645-3.342-.133.002-.266.002-.399 0-17.346-.242-32.384 5.631-48.094 10.876-73.302 24.472-16.425 113.901 30.507 115.993z" fill="#0d5b72" transform="matrix(.55713289255 .49475182821 -.42474615621 .47830049529 366.00865614 -47.5631576)"/><path d="m348.207 291.206 205.26 93.135c34.137 14.197-14.42 54.283-53.636 38.019l-194.742-80.164c7.87 3.504 11.406-2.669 14.909-10.538l12.696-28.518c3.503-7.87 23.382-8.43 15.513-11.934z" fill="#fea9a1" transform="matrix(.13520419288 -.39638296497 .62109894157 .26209554993 145.69015467303 186.19914645931)"/><path d="m605.386 250.799c0-8.614-25.739-15.608-57.442-15.608h-243.55c-132.013.587-127.794 62.995 0 62.432h243.55c31.703 0 57.442-6.993 57.442-15.608z" fill="#f88727" transform="matrix(.15697512299 -.06181113938 .2606769683 .61206378584 182.84640461416 27.50941815114)"/><path d="m324.783 282.533 90.161 40.139c12.8 30.205 4.578 48.434-22.538 55.899-2.12.582-4.433.403-6.465-.502-15.645-6.934-86.55-38.5-86.55-38.5 7.871 3.503 17.104-.042 20.607-7.911l12.696-28.518c3.503-7.87-.041-17.103-7.911-20.607z" fill="#fea9a1" transform="matrix(.39916801908 -.43228634318 .46376225751 .45742387359 68.92365441393 149.37570421352)"/><path d="m272.852 287.307c-4.346-21.663-36.009-36.823-57.549-26.274-3.648 1.786-19.403 38.001-21.441 79.456-1.137 23.123 13.795 47.557 9.071 69.325-7.304 33.654-19.081 69.885 20.941 74.919 25.365 3.19 67.696-23.779 71.24-34.416-1.311-30.258.675-74.52-5.707-113.223-5.349-32.447-15.725-51.867-16.555-49.787z" fill="#fda42c" transform="matrix(.84829107873 .48688944876 -.42240025907 .73593374299 242.02878781 -178.41365836)"/><path d="m348.207 291.206 205.26 93.135c34.137 14.197-14.42 54.283-53.636 38.019l-194.742-80.164c7.87 3.504 11.406-2.669 14.909-10.538l12.696-28.518c3.503-7.87 23.382-8.43 15.513-11.934z" fill="#feb6a1" transform="matrix(.28859549129 -.37336122833 .60498579364 .39768491947 124.04886914584 152.51242331387)"/><path d="m605.386 250.799c0-8.614-25.739-15.608-57.442-15.608h-243.55c-132.013.587-127.794 62.995 0 62.432h243.55c31.703 0 57.442-6.993 57.442-15.608z" fill="#f88727" transform="matrix(.19721171533 -.02937665368 .08019026235 .67616162639 220.57657109301 -.56221371111)"/><path d="m324.783 282.533 90.161 40.139c12.944 30.544 4.391 48.841-23.457 56.146-1.589.417-3.246.287-4.72-.369-13.745-6.1-87.376-38.88-87.376-38.88 7.871 3.503 17.104-.042 20.607-7.911l12.696-28.518c3.503-7.87-.041-17.103-7.911-20.607z" fill="#feb6a1" transform="matrix(.59667802065 -.3537497107 .36116951739 .5624140864 50.80632483491 98.86807406532)"/><circle cx="361.24658275663" cy="88.11523320236" fill="#feb6a1" r="43.54523705139" stroke-width=".73470510809"/></svg>