<?xml version="1.0" encoding="UTF-8" standalone="no"?>
<!DOCTYPE svg PUBLIC "-//W3C//DTD SVG 1.1//EN" "http://www.w3.org/Graphics/SVG/1.1/DTD/svg11.dtd">
<svg width="100%" height="100%" viewBox="0 0 639 639" version="1.1" xmlns="http://www.w3.org/2000/svg" xmlns:xlink="http://www.w3.org/1999/xlink" xml:space="preserve" xmlns:serif="http://www.serif.com/" style="fill-rule:evenodd;clip-rule:evenodd;stroke-linejoin:round;stroke-miterlimit:2;">
    <g transform="matrix(1,0,0,1,-1278.98,-55.1821)">
        <g transform="matrix(0.979083,0,0,0.979083,-32.4799,-553.538)">
            <circle cx="1665.54" cy="947.78" r="326.055" style="fill:rgb(254,215,102);fill-opacity:0;"/>
        </g>
        <g transform="matrix(0.926273,0,0,0.926273,475.592,-309.843)">
            <g id="Head" transform="matrix(0.832881,0.128998,-0.128998,0.832881,954.424,274.452)">
                <circle cx="330.943" cy="180.242" r="59.269" style="fill:rgb(254,182,161);"/>
            </g>
            <g transform="matrix(-0.0157653,-1.56868,-1.45241,0.0145968,1843.33,2406.85)">
                <path d="M1065.44,451.136C1065.44,440.074 1055.82,431.093 1043.96,431.093C1043.96,431.093 994.816,433.763 986.774,434.2C986.037,434.24 985.303,434.34 984.58,434.499C979.35,435.648 957.011,440.556 957.011,440.556C940.993,444.446 929.867,442.857 932.842,451.136C936.583,461.547 942.469,471.179 954.327,471.179L1043.96,471.179C1055.82,471.179 1065.44,462.198 1065.44,451.136Z" style="fill:rgb(254,182,161);"/>
            </g>
            <g transform="matrix(0.0164428,-1.63609,1.45241,0.0145968,579.817,2480.86)">
                <path d="M1065.44,451.136C1065.44,440.074 1055.82,431.093 1043.96,431.093C1043.96,431.093 994.45,433.783 986.686,434.205C986.007,434.242 985.332,434.334 984.665,434.48C979.596,435.594 957.011,440.556 957.011,440.556C940.993,444.446 929.867,442.857 932.842,451.136C936.583,461.547 942.469,471.179 954.327,471.179L1043.96,471.179C1055.82,471.179 1065.44,462.198 1065.44,451.136Z" style="fill:rgb(254,182,161);"/>
            </g>
            <g transform="matrix(0.0464791,-1.25626,1.05763,0.0549807,638.758,2193.09)">
                <path d="M1065.44,451.136C1065.44,440.074 1057.88,431.093 1048.56,431.093L949.726,431.093C940.407,431.093 932.842,440.074 932.842,451.136C932.842,462.198 940.407,471.179 949.726,471.179L1048.56,471.179C1057.88,471.179 1065.44,462.198 1065.44,451.136Z" style="fill:rgb(254,182,161);"/>
            </g>
            <g transform="matrix(-0.0458028,-1.23798,-1.05763,0.0549807,1784.39,2176.19)">
                <path d="M1065.44,451.136C1065.44,440.074 1057.77,431.093 1048.31,431.093L949.975,431.093C940.519,431.093 932.842,440.074 932.842,451.136C932.842,462.198 940.519,471.179 949.975,471.179L1048.31,471.179C1057.77,471.179 1065.44,462.198 1065.44,451.136Z" style="fill:rgb(254,182,161);"/>
            </g>
            <g id="Pants" transform="matrix(-0.112386,0.694215,0.581367,0.125929,915.827,533.247)">
                <path d="M206.841,553.968C222.904,554.658 238.279,556.154 252.3,557.833C276.991,560.791 305,563.378 317.646,564.076C322.846,564.362 355.53,454.931 340.714,451.612C329.203,449.034 321.319,447.054 305.94,444.602C291.202,442.253 284.561,439.965 273.31,438.356C255.424,435.798 237.606,434.777 219.691,435C218.134,435.021 216.579,434.987 215.029,434.898C196.67,433.454 165.061,425.091 150.26,430.033C132.794,435.864 126.492,452.942 124.167,464.775C116.734,502.605 171.091,552.374 206.841,553.968Z" style="fill:rgb(13,91,114);"/>
            </g>
            <g id="Pants1" serif:id="Pants" transform="matrix(0.112386,0.694215,-0.625466,0.135481,1526.37,522.806)">
                <path d="M206.841,553.968C218.456,555.307 231.736,550.661 243.444,550.803C274.839,551.183 303.648,553.674 324.565,554.249C331.331,554.435 363.483,451.006 340.714,451.612C340.177,451.627 244.85,437.846 221.067,435.26C219.328,435.093 217.582,434.99 215.831,434.951C198.694,434.528 176.946,433.233 161.454,434.939C147.066,436.524 134.444,444.031 129.265,451.665C122.729,461.299 120.903,493.654 116.331,524.599C110.117,566.661 103.857,609.701 120.489,622.802C133.982,633.43 194.677,553.426 206.841,553.968Z" style="fill:rgb(13,91,114);"/>
            </g>
            <g transform="matrix(1.004,0.0103196,-0.00916271,0.891442,-368.275,-209.095)">
                <path d="M1655.99,850.43C1656.33,823.777 1640.16,814.25 1614.06,810.563L1542.67,810.563C1507.94,817.921 1499.26,827.208 1500.78,848.91C1510.83,899.716 1518.62,950.034 1517.72,998.467C1517.09,1009.93 1520.3,1022.46 1530.56,1025.91C1555.74,1034.38 1609.63,1034.2 1632.93,1023.03C1641.23,1019.05 1643.88,1008.61 1644.43,998.734C1639.1,944.786 1644.4,896.066 1655.99,850.43Z" style="fill:rgb(253,164,44);"/>
            </g>
            <g transform="matrix(0.474036,0.719698,-0.868723,0.572193,1080.62,-381.084)">
                <path d="M1065.44,451.136C1065.44,440.074 1054.6,431.093 1041.25,431.093L957.036,431.093C943.683,431.093 932.842,440.074 932.842,451.136C932.842,462.198 943.683,471.179 957.036,471.179L1041.25,471.179C1054.6,471.179 1065.44,462.198 1065.44,451.136Z" style="fill:rgb(254,167,161);"/>
            </g>
            <g id="Shirt" transform="matrix(0.0290658,0.166825,-0.88189,0.153651,1377.24,451.925)">
                <path d="M605.386,250.799C605.386,242.185 579.647,235.191 547.944,235.191L304.394,235.191C172.381,235.778 176.6,298.186 304.394,297.623L547.944,297.623C579.647,297.623 605.386,290.63 605.386,282.015L605.386,250.799Z" style="fill:rgb(253,153,44);"/>
            </g>
            <g transform="matrix(-1.34897,-0.12768,0.0997552,-1.05394,2467.48,1160.33)">
                <path d="M1065.44,451.136C1065.44,440.074 1058.43,431.093 1049.78,431.093L948.502,431.093C939.859,431.093 932.842,440.074 932.842,451.136C932.842,462.198 939.859,471.179 948.502,471.179L1049.78,471.179C1058.43,471.179 1065.44,462.198 1065.44,451.136Z" style="fill:rgb(254,182,161);"/>
            </g>
            <g id="Shirt1" serif:id="Shirt" transform="matrix(-0.157223,0.0628972,-0.332495,-0.831135,1415.02,751.754)">
                <path d="M605.386,250.799C605.386,242.185 579.647,235.191 547.944,235.191L304.394,235.191C172.381,235.778 176.6,298.186 304.394,297.623L547.944,297.623C579.647,297.623 605.386,290.63 605.386,282.015L605.386,250.799Z" style="fill:rgb(253,153,44);"/>
            </g>
            <g transform="matrix(-0.63045,0.981534,-0.933844,-0.599818,2266.74,-123.261)">
                <path d="M1065.44,451.136C1065.44,440.074 1056.9,431.093 1046.38,431.093L951.911,431.093C941.387,431.093 932.842,440.074 932.842,451.136C932.842,462.198 941.387,471.179 951.911,471.179L1046.38,471.179C1056.9,471.179 1065.44,462.198 1065.44,451.136Z" style="fill:rgb(254,173,161);"/>
            </g>
        </g>
    </g>
</svg>
