<?xml version="1.0" encoding="UTF-8" standalone="no"?>
<!DOCTYPE svg PUBLIC "-//W3C//DTD SVG 1.1//EN" "http://www.w3.org/Graphics/SVG/1.1/DTD/svg11.dtd">
<svg width="100%" height="100%" viewBox="0 0 639 639" version="1.1" xmlns="http://www.w3.org/2000/svg" xmlns:xlink="http://www.w3.org/1999/xlink" xml:space="preserve" xmlns:serif="http://www.serif.com/" style="fill-rule:evenodd;clip-rule:evenodd;stroke-linejoin:round;stroke-miterlimit:2;">
    <g transform="matrix(1,0,0,1,-1279.09,-55.1821)">
<!--         <g transform="matrix(0.979083,0,0,0.979083,-32.3726,-553.538)">
            <circle cx="1665.54" cy="947.78" r="326.055" style="fill:rgb(254,215,102);"/>
        </g> -->
        <g id="Forward-Bend-Stretch" serif:id="Forward Bend Stretch" transform="matrix(1,0,0,1,641.729,-307.396)">
            <g id="Head" transform="matrix(0.811907,0,0,0.811907,848.623,518.379)">
                <circle cx="330.943" cy="180.242" r="59.269" style="fill:rgb(254,182,161);"/>
            </g>
            <g transform="matrix(0.0212777,0.999774,-0.999774,0.0212777,1709.06,-427.459)">
                <g id="Pants" transform="matrix(0.841885,0,0,0.817434,737.909,414.613)">
                    <path d="M206.841,553.968C251.192,555.874 304.739,553.156 324.565,554.249C329.766,554.536 355.53,454.931 340.714,451.612C329.203,449.034 321.319,447.054 305.94,444.602C291.202,442.253 284.561,439.965 273.31,438.356C255.082,435.749 236.925,434.739 218.665,435.014C218.356,435.018 218.046,435.019 217.737,435.016C200.613,434.892 185.722,440.698 170.172,445.89C96.87,470.362 159.909,551.876 206.841,553.968Z" style="fill:rgb(13,91,114);"/>
                </g>
                <g id="Legs" transform="matrix(0.811907,0,0,0.811907,751.541,406.056)">
                    <path d="M336.503,465.226C331.787,464.2 540.845,502.508 540.845,502.508C630.543,514.998 700.917,495.757 715.295,502.22C727.944,512.274 706.697,570.492 691.377,570.492C691.377,570.492 307.637,567.45 319.758,568.561C325.135,569.054 351.866,468.567 336.503,465.226Z" style="fill:rgb(254,182,161);"/>
                </g>
            </g>
            <g id="Torso" transform="matrix(-0.642667,0.700066,-0.712704,-0.654269,1409.85,643.453)">
                <path d="M272.852,287.307C268.506,265.644 220.339,266.975 197.157,282.399C190.415,286.885 180.658,295.191 173.622,303.551C164.991,313.807 162.274,323.937 161.342,326.629C152.4,352.459 164.407,513.683 199.681,515.233L241.314,489.01C256.133,481.057 278.58,456.904 280.219,450.157C264.274,402.689 258.849,355.828 272.852,287.307Z" style="fill:rgb(253,164,44);"/>
            </g>
            <g transform="matrix(0.345271,0.938503,-0.938503,0.345271,1300.63,-536.622)">
                <g id="Shirt" transform="matrix(0.20154,0.0897233,-0.330208,0.741725,982.464,411.836)">
                    <path d="M605.386,250.799C605.386,242.185 579.647,235.191 547.944,235.191L304.394,235.191C172.381,235.778 176.6,298.186 304.394,297.623L547.944,297.623C579.647,297.623 605.386,290.63 605.386,282.015L605.386,250.799Z" style="fill:rgb(248,135,39);"/>
                </g>
                <g transform="matrix(0.768423,0,0,0.795876,764.56,410.585)">
                    <path d="M324.783,282.533L553.467,384.341C587.604,398.538 567.29,457.641 528.075,441.376L299.391,339.569C307.262,343.072 316.495,339.527 319.998,331.658L332.694,303.14C336.197,295.27 332.653,286.037 324.783,282.533Z" style="fill:rgb(254,182,161);"/>
                </g>
            </g>
        </g>
    </g>
</svg>
