<?xml version="1.0" encoding="UTF-8" standalone="no"?>
<!DOCTYPE svg PUBLIC "-//W3C//DTD SVG 1.1//EN" "http://www.w3.org/Graphics/SVG/1.1/DTD/svg11.dtd">
<svg width="100%" height="100%" viewBox="0 0 639 639" version="1.1" xmlns="http://www.w3.org/2000/svg" xmlns:xlink="http://www.w3.org/1999/xlink" xml:space="preserve" xmlns:serif="http://www.serif.com/" style="fill-rule:evenodd;clip-rule:evenodd;stroke-linejoin:round;stroke-miterlimit:2;">
    <g transform="matrix(1,0,0,1,-1272.57,-71.0157)">
        <!-- <g transform="matrix(0.979083,0,0,0.979083,-38.8923,-537.705)">
            <circle cx="1665.54" cy="947.78" r="326.055" style="fill:rgb(254,215,102);"/>
        </g> -->
        <g id="Leg-Raise-Stretch" serif:id="Leg Raise Stretch" transform="matrix(0.925282,0,0,0.925282,503.689,-343.306)">
            <g id="Head" transform="matrix(0.811907,0,0,0.811907,663.157,776.044)">
                <circle cx="330.943" cy="180.242" r="59.269" style="fill:rgb(254,182,161);"/>
            </g>
            <g>
                <g id="Legs" transform="matrix(-0.136674,-0.439068,0.719971,-0.224114,871.925,1098.85)">
                    <path d="M336.503,465.226C331.787,464.2 540.845,502.508 540.845,502.508C692.339,551.356 368.475,603.244 319.758,568.561C315.36,565.43 351.866,468.567 336.503,465.226Z" style="fill:rgb(253,171,146);"/>
                </g>
                <g id="Pants" transform="matrix(-0.277393,-0.794873,0.771787,-0.269337,890.989,1184.46)">
                    <path d="M206.841,553.968C251.192,555.874 304.739,553.156 324.565,554.249C329.766,554.536 355.53,454.931 340.714,451.612C329.203,449.034 321.319,447.054 305.94,444.602C291.202,442.253 284.561,439.965 273.31,438.356C255.082,435.749 236.925,434.739 218.665,435.014C218.356,435.018 218.046,435.019 217.737,435.016C200.613,434.892 185.722,440.698 170.172,445.89C96.87,470.362 159.909,551.876 206.841,553.968Z" style="fill:rgb(13,84,114);"/>
                </g>
                <g id="Legs1" serif:id="Legs" transform="matrix(0.181789,-0.610632,0.649101,0.193241,796.607,860.985)">
                    <path d="M336.503,465.226C331.787,464.2 540.845,502.508 540.845,502.508C630.543,514.998 700.917,495.757 715.295,502.22C727.944,512.274 706.697,570.492 691.377,570.492C691.377,570.492 307.637,567.45 319.758,568.561C325.135,569.054 351.866,468.567 336.503,465.226Z" style="fill:rgb(253,171,146);"/>
                </g>
            </g>
            <g>
                <g id="Legs2" serif:id="Legs" transform="matrix(0.182975,-0.421878,0.619235,0.268572,885.291,854.595)">
                    <path d="M336.503,465.226C331.787,464.2 540.845,502.508 540.845,502.508C692.339,551.356 368.475,603.244 319.758,568.561C315.36,565.43 351.866,468.567 336.503,465.226Z" style="fill:rgb(254,182,161);"/>
                </g>
                <g id="Pants1" serif:id="Pants" transform="matrix(0.423618,-0.600492,0.667953,0.471208,800.262,813.869)">
                    <path d="M200.679,561.883C245.091,576.233 305.643,548.13 325.45,545.224C330.604,544.468 355.53,454.931 340.714,451.612C329.203,449.034 321.319,447.054 305.94,444.602C291.202,442.253 284.561,439.965 273.31,438.356C255.104,435.752 236.968,434.741 218.73,435.013C218.427,435.017 218.125,435.017 217.822,435.014C200.663,434.873 185.748,440.69 170.172,445.89C96.87,470.362 153.747,559.791 200.679,561.883Z" style="fill:rgb(13,91,114);"/>
                </g>
                <g id="Legs3" serif:id="Legs" transform="matrix(0.53078,0.738786,-0.659375,0.473728,1413.78,184.285)">
                    <path d="M470.223,561.43C439.419,561.24 438.337,534.14 439.397,519.266C441.102,495.34 459.007,487.523 496.666,494.417C522.436,499.135 540.845,502.508 540.845,502.508C630.543,514.998 700.917,495.757 715.295,502.22C727.944,512.274 706.697,570.492 691.377,570.492C691.377,570.492 631.326,557.146 562.597,570.148C532.918,575.763 501.696,561.625 470.223,561.43Z" style="fill:rgb(254,182,161);"/>
                </g>
            </g>
            <g id="Torso" transform="matrix(-0.01145,-0.950254,0.967408,-0.0116567,724.317,1167.91)">
                <path d="M272.852,287.307C268.506,265.644 232.464,282.643 204.793,279.551C198.601,278.859 175.916,351.762 194.526,424.556C205.483,467.41 185.354,513.861 199.681,515.233L241.314,489.01C256.133,481.057 278.58,456.904 280.219,450.157C269.634,418.647 285.217,374.37 289.407,337.094C293.081,304.415 273.682,285.227 272.852,287.307Z" style="fill:rgb(253,164,44);"/>
            </g>
            <g transform="matrix(0.318401,-0.947956,0.947956,0.318401,134.926,1637.33)">
                <g id="Shirt" transform="matrix(0.20154,0.0897233,-0.330208,0.741725,993.851,402.399)">
                    <path d="M605.386,250.799C605.386,242.185 579.647,235.191 547.944,235.191L304.394,235.191C172.381,235.778 176.6,298.186 304.394,297.623L547.944,297.623C579.647,297.623 605.386,290.63 605.386,282.015L605.386,250.799Z" style="fill:rgb(248,135,39);"/>
                </g>
                <g transform="matrix(0.768423,0,0,0.795876,775.946,401.148)">
                    <path d="M324.783,282.533L553.467,384.341C587.604,398.538 567.29,457.641 528.075,441.376L299.391,339.569C307.262,343.072 316.495,339.527 319.998,331.658L332.694,303.14C336.197,295.27 332.653,286.037 324.783,282.533Z" style="fill:rgb(254,182,161);"/>
                </g>
            </g>
        </g>
    </g>
</svg>
