<?xml version="1.0" encoding="UTF-8" standalone="no"?>
<!DOCTYPE svg PUBLIC "-//W3C//DTD SVG 1.1//EN" "http://www.w3.org/Graphics/SVG/1.1/DTD/svg11.dtd">
<svg width="100%" height="100%" viewBox="0 0 639 639" version="1.1" xmlns="http://www.w3.org/2000/svg" xmlns:xlink="http://www.w3.org/1999/xlink" xml:space="preserve" xmlns:serif="http://www.serif.com/" style="fill-rule:evenodd;clip-rule:evenodd;stroke-linejoin:round;stroke-miterlimit:2;">
    <g transform="matrix(1,0,0,1,-1272.57,-71.0157)">
        <!-- <g transform="matrix(0.979083,0,0,0.979083,-38.8923,-537.705)">
            <circle cx="1665.54" cy="947.78" r="326.055" style="fill:rgb(254,215,102);"/>
        </g> -->
        <g id="Lunge-Stretch" serif:id="Lunge Stretch" transform="matrix(1,0,0,1,299.753,-266.042)">
            <g id="Legs" transform="matrix(0.760871,0.283319,-0.283319,0.760871,1078.83,100.636)">
                <path d="M630.666,570.027C599.857,569.796 605.9,507.417 632.304,506.172C638.283,505.89 707.583,498.753 715.295,502.22C733.753,507.521 740.878,533.643 735.27,548.268C728.705,565.388 706.471,570.854 691.377,570.492C691.377,570.492 666.972,570.298 630.666,570.027Z" style="fill:rgb(254,182,161);"/>
            </g>
            <g id="Head" transform="matrix(0.803254,0.118222,-0.118222,0.803254,1113.44,222.971)">
                <circle cx="330.943" cy="180.242" r="59.269" style="fill:rgb(254,182,161);"/>
            </g>
            <g id="Legs1" serif:id="Legs" transform="matrix(-0.913556,1.06409,-0.826089,-0.709227,2320.04,407.916)">
                <path d="M630.666,570.027C601.56,580.131 605.9,507.417 632.304,506.172C638.283,505.89 705.982,495.524 713.694,498.991C726.344,509.045 705.242,546.001 689.923,546.001C685.485,546.001 662.295,559.047 630.666,570.027Z" style="fill:rgb(254,182,161);"/>
            </g>
            <g id="Pants" transform="matrix(-0.405705,0.631801,-0.558775,-0.358812,1691.37,701.184)">
                <path d="M200.679,561.883C245.091,576.233 305.643,548.13 325.45,545.224C330.604,544.468 355.53,454.931 340.714,451.612C329.203,449.034 321.319,447.054 305.94,444.602C291.202,442.253 284.561,439.965 273.31,438.356C255.082,435.749 236.925,434.739 218.665,435.014C218.532,435.016 218.399,435.016 218.265,435.014C200.919,434.772 185.882,440.645 170.172,445.89C96.87,470.362 153.747,559.791 200.679,561.883Z" style="fill:rgb(13,84,114);"/>
            </g>
            <g id="Pants1" serif:id="Pants" transform="matrix(0.71697,0.25657,-0.231207,0.646093,1300.94,288.423)">
                <path d="M200.679,561.883C245.091,576.233 305.643,548.13 325.45,545.224C330.604,544.468 355.53,454.931 340.714,451.612C329.203,449.034 321.319,447.054 305.94,444.602C291.202,442.253 284.561,439.965 273.31,438.356C255.082,435.749 236.925,434.739 218.665,435.014C218.532,435.016 218.398,435.016 218.265,435.014C200.919,434.773 185.882,440.645 170.172,445.89C96.87,470.362 153.747,559.791 200.679,561.883Z" style="fill:rgb(13,91,114);"/>
            </g>
            <g id="Torso" transform="matrix(0.98563,0.0335108,-0.0304183,0.894673,1098.48,221.627)">
                <path d="M272.852,287.307C268.506,265.644 236.843,250.484 215.303,261.033C211.655,262.819 195.9,299.034 193.862,340.489C192.725,363.612 207.657,388.046 202.933,409.814C195.629,443.468 183.852,479.699 223.874,484.733C249.239,487.923 291.57,460.954 295.114,450.317C293.803,420.059 295.789,375.797 289.407,337.094C284.058,304.647 273.682,285.227 272.852,287.307Z" style="fill:rgb(253,164,44);"/>
            </g>
            <g transform="matrix(0.116552,0.917912,-0.917912,0.116552,1782.9,-478.362)">
                <g id="Shirt" transform="matrix(0.20154,0.0897233,-0.330208,0.741725,993.851,402.399)">
                    <path d="M605.386,250.799C605.386,242.185 579.647,235.191 547.944,235.191L304.394,235.191C172.381,235.778 176.6,298.186 304.394,297.623L547.944,297.623C579.647,297.623 605.386,290.63 605.386,282.015L605.386,250.799Z" style="fill:rgb(248,135,39);"/>
                </g>
                <g transform="matrix(0.768423,0,0,0.795876,775.946,401.148)">
                    <path d="M324.783,282.533L414.944,322.672C427.872,353.177 419.356,371.467 391.591,378.791C389.945,379.224 388.192,379.084 386.642,378.394C372.583,372.153 299.391,339.569 299.391,339.569C307.262,343.072 316.495,339.527 319.998,331.658L332.694,303.14C336.197,295.27 332.653,286.037 324.783,282.533Z" style="fill:rgb(254,182,161);"/>
                </g>
            </g>
            <g transform="matrix(0.398443,0.386109,-0.476504,0.491726,1306.34,305.338)">
                <path d="M324.783,282.533L553.467,384.341C587.604,398.538 567.29,457.641 528.075,441.376L299.391,339.569C307.262,343.072 316.495,339.527 319.998,331.658L332.694,303.14C336.197,295.27 332.653,286.037 324.783,282.533Z" style="fill:rgb(254,182,161);"/>
            </g>
            <g id="Legs2" serif:id="Legs" transform="matrix(0.905121,0.512986,-0.545935,0.963257,941.433,-790.102)">
                <path d="M1171.42,942.391C1175.81,956.37 1185.19,996.642 1185.92,999.784C1185.95,999.914 1185.99,1000.04 1186.03,1000.17C1201.53,1043.56 1200.2,1048.54 1214.67,1062.27C1217.02,1064.5 1226.5,1068.9 1234.57,1065.39C1248.41,1059.38 1259.52,1059.87 1254.68,1077.64C1253.02,1088.01 1192.94,1116.77 1188.29,1107.59C1185.06,1101.24 1169.24,1060.87 1142.44,1027.83C1131.98,1014.95 1122.54,966.652 1123.29,967.954C1124.51,970.083 1152.77,949.836 1171.42,942.391Z" style="fill:rgb(254,182,161);"/>
            </g>
            <g id="Legs3" serif:id="Legs" transform="matrix(-0.156436,1.02856,-1.09462,-0.166484,2461.43,-227.144)">
                <path d="M1163.07,935.997C1168.7,940.887 1184.96,990.925 1185.93,999.099C1185.91,999.459 1185.95,999.82 1186.04,1000.17C1197.07,1042.18 1193.81,1046.57 1214.67,1062.27C1217.26,1064.22 1226.5,1068.9 1234.57,1065.39C1248.41,1059.38 1259.52,1059.87 1254.68,1077.64C1253.02,1088.01 1190.68,1117.6 1188.29,1107.59C1186.67,1100.88 1171.24,1060.41 1142.44,1027.83C1131.45,1015.4 1116.48,958.432 1117.22,959.734C1118.44,961.863 1144.42,943.442 1163.07,935.997Z" style="fill:rgb(254,182,161);"/>
            </g>
        </g>
    </g>
</svg>
