<?xml version="1.0" encoding="UTF-8" standalone="no"?>
<!DOCTYPE svg PUBLIC "-//W3C//DTD SVG 1.1//EN" "http://www.w3.org/Graphics/SVG/1.1/DTD/svg11.dtd">
<svg width="100%" height="100%" viewBox="0 0 639 639" version="1.1" xmlns="http://www.w3.org/2000/svg" xmlns:xlink="http://www.w3.org/1999/xlink" xml:space="preserve" xmlns:serif="http://www.serif.com/" style="fill-rule:evenodd;clip-rule:evenodd;stroke-linejoin:round;stroke-miterlimit:2;">
    <g transform="matrix(1,0,0,1,-1278.98,-55.1821)">
        <g transform="matrix(0.979083,0,0,0.979083,-32.4799,-553.538)">
            <circle cx="1665.54" cy="947.78" r="326.055" style="fill:rgb(254,215,102);fill-opacity:0;"/>
        </g>
        <g transform="matrix(0.837736,0,0,0.837736,587.315,-210.63)">
            <g transform="matrix(-0.0157653,-1.56868,-1.45241,0.0145968,1843.33,2406.85)">
                <path d="M1065.44,451.136C1065.44,440.074 1055.82,431.093 1043.96,431.093C1043.96,431.093 995.28,433.738 986.891,434.194C986.076,434.238 985.265,434.348 984.465,434.524C979.031,435.718 957.011,440.556 957.011,440.556C940.993,444.446 929.867,442.857 932.842,451.136C936.583,461.547 942.469,471.179 954.327,471.179L1043.96,471.179C1055.82,471.179 1065.44,462.198 1065.44,451.136Z" style="fill:rgb(254,182,161);"/>
            </g>
            <g transform="matrix(0.0164428,-1.63609,1.45241,0.0145968,579.817,2480.86)">
                <path d="M1065.44,451.136C1065.44,440.074 1055.82,431.093 1043.96,431.093C1043.96,431.093 994.896,433.759 986.793,434.199C986.043,434.24 985.296,434.341 984.559,434.503C979.29,435.661 957.011,440.556 957.011,440.556C940.993,444.446 929.867,442.857 932.842,451.136C936.583,461.547 942.469,471.179 954.327,471.179L1043.96,471.179C1055.82,471.179 1065.44,462.198 1065.44,451.136Z" style="fill:rgb(254,182,161);"/>
            </g>
            <g transform="matrix(0.0464791,-1.25626,1.05763,0.0549807,638.758,2193.09)">
                <path d="M1065.44,451.136C1065.44,440.074 1057.88,431.093 1048.56,431.093L949.726,431.093C940.407,431.093 932.842,440.074 932.842,451.136C932.842,462.198 940.407,471.179 949.726,471.179L1048.56,471.179C1057.88,471.179 1065.44,462.198 1065.44,451.136Z" style="fill:rgb(254,182,161);"/>
            </g>
            <g transform="matrix(-0.0458028,-1.23798,-1.05763,0.0549807,1784.39,2176.19)">
                <path d="M1065.44,451.136C1065.44,440.074 1057.77,431.093 1048.31,431.093L949.975,431.093C940.519,431.093 932.842,440.074 932.842,451.136C932.842,462.198 940.519,471.179 949.975,471.179L1048.31,471.179C1057.77,471.179 1065.44,462.198 1065.44,451.136Z" style="fill:rgb(254,182,161);"/>
            </g>
            <g id="Pants" transform="matrix(-0.112386,0.694215,0.581367,0.125929,915.827,533.247)">
                <path d="M206.841,553.968C222.904,554.658 238.279,556.154 252.3,557.833C276.991,560.791 305,563.378 317.646,564.076C322.846,564.362 355.53,454.931 340.714,451.612C329.203,449.034 321.319,447.054 305.94,444.602C291.202,442.253 284.561,439.965 273.31,438.356C255.499,435.809 237.755,434.786 219.917,434.997C218.037,435.021 216.16,434.973 214.289,434.853C195.834,433.235 164.864,425.157 150.26,430.033C132.794,435.864 126.492,452.942 124.167,464.775C116.734,502.605 171.091,552.374 206.841,553.968Z" style="fill:rgb(13,91,114);"/>
            </g>
            <g id="Pants1" serif:id="Pants" transform="matrix(0.112386,0.694215,-0.625466,0.135481,1526.37,522.806)">
                <path d="M206.841,553.968C218.456,555.307 231.736,550.661 243.444,550.803C274.839,551.183 303.648,553.674 324.565,554.249C331.331,554.435 363.483,451.006 340.714,451.612C340.179,451.627 245.457,437.934 221.296,435.285C219.376,435.1 217.448,434.986 215.514,434.943C198.427,434.512 176.85,433.244 161.454,434.939C147.066,436.524 134.444,444.031 129.265,451.665C122.729,461.299 120.903,493.654 116.331,524.599C110.117,566.661 103.857,609.701 120.489,622.802C133.982,633.43 194.677,553.426 206.841,553.968Z" style="fill:rgb(13,91,114);"/>
            </g>
            <g transform="matrix(0.265946,-0.748197,0.997507,0.354563,435.071,991.607)">
                <path d="M1065.44,451.136C1065.44,440.074 1053.47,431.093 1038.72,431.093L959.564,431.093C944.816,431.093 932.842,440.074 932.842,451.136C932.842,462.198 944.816,471.179 959.564,471.179L1038.72,471.179C1053.47,471.179 1065.44,462.198 1065.44,451.136Z" style="fill:rgb(254,182,161);"/>
            </g>
            <g transform="matrix(0.843922,-2.6272e-17,6.24649e-16,0.761624,360.766,22.362)">
                <path d="M1065.44,451.136C1065.44,440.074 1057.34,431.093 1047.36,431.093L998.385,434.179L950.931,431.093C940.947,431.093 932.842,440.074 932.842,451.136C932.842,462.198 940.947,471.179 950.931,471.179L997.822,474.184L1047.36,471.179C1057.34,471.179 1065.44,462.198 1065.44,451.136Z" style="fill:rgb(254,182,161);"/>
            </g>
            <g transform="matrix(0.0772959,-0.963372,1.05526,0.0846683,581.237,1407.37)">
                <path d="M1065.44,451.136C1065.44,440.074 1055.61,431.093 1043.49,431.093L954.797,431.093C942.68,431.093 932.842,440.074 932.842,451.136C932.842,462.198 942.68,471.179 954.797,471.179L1043.49,471.179C1055.61,471.179 1065.44,462.198 1065.44,451.136Z" style="fill:rgb(254,182,161);"/>
            </g>
            <g transform="matrix(-0.265946,-0.748197,-0.997507,0.354563,1977.58,991.607)">
                <path d="M1065.44,451.136C1065.44,440.074 1053.47,431.093 1038.72,431.093L959.564,431.093C944.816,431.093 932.842,440.074 932.842,451.136C932.842,462.198 944.816,471.179 959.564,471.179L1038.72,471.179C1053.47,471.179 1065.44,462.198 1065.44,451.136Z" style="fill:rgb(254,182,161);"/>
            </g>
            <g transform="matrix(-0.0772959,-0.963372,-1.05526,0.0846683,1831.41,1407.37)">
                <path d="M1065.44,451.136C1065.44,440.074 1055.61,431.093 1043.49,431.093L954.797,431.093C942.68,431.093 932.842,440.074 932.842,451.136C932.842,462.198 942.68,471.179 954.797,471.179L1043.49,471.179C1055.61,471.179 1065.44,462.198 1065.44,451.136Z" style="fill:rgb(254,182,161);"/>
            </g>
            <g transform="matrix(1.004,0.0103196,-0.00916271,0.891442,-368.275,-209.095)">
                <path d="M1655.99,850.43C1656.33,823.777 1640.16,814.25 1614.06,810.563L1542.67,810.563C1507.94,817.921 1499.26,827.208 1500.78,848.91C1510.83,899.716 1518.62,950.034 1517.72,998.467C1517.09,1009.93 1520.3,1022.46 1530.56,1025.91C1555.74,1034.38 1609.63,1034.2 1632.93,1023.03C1641.23,1019.05 1643.88,1008.61 1644.43,998.734C1639.1,944.786 1644.4,896.066 1655.99,850.43Z" style="fill:rgb(253,164,44);"/>
            </g>
            <g id="Shirt" transform="matrix(-0.0618971,-0.15762,0.83323,-0.327208,946.818,706.621)">
                <path d="M605.386,250.799C605.386,242.185 579.647,235.191 547.944,235.191L304.394,235.191C172.381,235.778 176.6,298.186 304.394,297.623L547.944,297.623C579.647,297.623 605.386,290.63 605.386,282.015L605.386,250.799Z" style="fill:rgb(253,164,44);"/>
            </g>
            <g id="Shirt1" serif:id="Shirt" transform="matrix(0.0381377,-0.164987,0.872177,0.201608,1022.9,564.465)">
                <path d="M605.386,250.799C605.386,242.185 579.647,235.191 547.944,235.191L304.394,235.191C172.381,235.778 176.6,298.186 304.394,297.623L547.944,297.623C579.647,297.623 605.386,290.63 605.386,282.015L605.386,250.799Z" style="fill:rgb(253,164,44);"/>
            </g>
            <g id="Head" transform="matrix(0.775344,0,5.10674e-17,0.775344,950.173,339.573)">
                <circle cx="330.943" cy="180.242" r="59.269" style="fill:rgb(254,182,161);"/>
            </g>
        </g>
    </g>
</svg>
