<?xml version="1.0" encoding="UTF-8" standalone="no"?>
<!DOCTYPE svg PUBLIC "-//W3C//DTD SVG 1.1//EN" "http://www.w3.org/Graphics/SVG/1.1/DTD/svg11.dtd">
<svg width="100%" height="100%" viewBox="0 0 639 639" version="1.1" xmlns="http://www.w3.org/2000/svg" xmlns:xlink="http://www.w3.org/1999/xlink" xml:space="preserve" xmlns:serif="http://www.serif.com/" style="fill-rule:evenodd;clip-rule:evenodd;stroke-linejoin:round;stroke-miterlimit:2;">
    <g transform="matrix(1,0,0,1,-1278.98,-55.1821)">
        <g transform="matrix(0.979083,0,0,0.979083,-32.4799,-553.538)">
            <circle cx="1665.54" cy="947.78" r="326.055" style="fill:rgb(254,215,102);fill-opacity:0;"/>
        </g>
        <g id="Quad-Stretch" serif:id="Quad Stretch" transform="matrix(0.789767,0,0,0.789767,738.827,-200.669)">
            <g id="Head" transform="matrix(0.925535,0.143349,-0.143349,0.925535,850.102,212.208)">
                <circle cx="330.943" cy="180.242" r="59.269" style="fill:rgb(254,182,161);"/>
            </g>
            <g id="Legs" transform="matrix(0.200843,0.882409,-1.2674,0.288469,1683.38,78.2993)">
                <path d="M650.409,548.294C619.6,548.064 605.9,507.417 632.304,506.172C638.283,505.89 707.583,498.753 715.295,502.22C733.753,507.521 740.878,533.643 735.27,548.268C728.705,565.388 712.015,564.178 696.921,563.816C696.921,563.816 686.716,548.566 650.409,548.294Z" style="fill:rgb(254,169,161);"/>
            </g>
            <g id="Pants" transform="matrix(0.39971,0.782208,-0.704882,0.360197,1359.75,364.129)">
                <path d="M200.679,561.883C245.091,576.233 305.643,548.13 325.45,545.224C330.604,544.468 355.53,454.931 340.714,451.612C329.203,449.034 321.319,447.054 305.94,444.602C291.202,442.253 284.561,439.965 273.31,438.356C255.082,435.749 236.925,434.739 218.665,435.014C218.531,435.016 218.398,435.016 218.265,435.014C200.919,434.773 185.882,440.645 170.172,445.89C96.87,470.362 153.747,559.791 200.679,561.883Z" style="fill:rgb(13,84,114);"/>
            </g>
            <g id="Legs1" serif:id="Legs" transform="matrix(-0.583822,-0.219173,0.268615,-0.715521,1208.54,1318.96)">
                <path d="M376.281,495.895C371.565,494.869 540.845,502.508 540.845,502.508C630.543,514.998 700.917,495.757 715.295,502.22C727.944,512.274 706.697,570.492 691.377,570.492C692.007,575.686 308.888,577.764 319.758,568.561C323.879,565.073 391.645,499.236 376.281,495.895Z" style="fill:rgb(254,169,161);"/>
            </g>
            <g>
                <g id="Legs2" serif:id="Legs" transform="matrix(0.902699,0.61127,-0.650055,0.959974,681.586,-719.664)">
                    <path d="M1170.18,1070.09C1171.17,1071.53 1202.33,1044.78 1208.06,1055.26C1209.44,1057.78 1211.99,1059.73 1214.67,1062.27C1217.02,1064.5 1226.5,1068.9 1234.57,1065.39C1248.41,1059.38 1259.52,1059.87 1254.68,1077.64C1253.02,1088.01 1192.94,1116.77 1188.29,1107.59C1186.41,1103.9 1180.27,1088.68 1170.18,1070.09" style="fill:rgb(254,182,161);"/>
                </g>
                <g id="Legs3" serif:id="Legs" transform="matrix(0.0164563,0.613829,-0.824414,0.022102,1500.05,592.343)">
                    <path d="M326.68,465.362C321.963,464.337 540.845,502.508 540.845,502.508C630.543,514.998 694.287,512.481 708.665,518.943C721.315,528.998 706.697,570.492 691.377,570.492C691.377,570.492 307.637,567.45 319.758,568.561C325.135,569.054 342.043,468.704 326.68,465.362Z" style="fill:rgb(254,182,161);"/>
                </g>
            </g>
            <g id="Pants1" serif:id="Pants" transform="matrix(0.0213521,0.796441,-0.830025,0.0222524,1489.69,530.399)">
                <path d="M206.841,553.968C251.192,555.874 304.739,553.156 324.565,554.249C329.766,554.536 355.53,454.931 340.714,451.612C329.203,449.034 321.319,447.054 305.94,444.602C291.202,442.253 284.561,439.965 273.31,438.356C255.09,435.75 236.942,434.74 218.69,435.014C218.393,435.017 218.095,435.017 217.797,435.015C200.648,434.878 185.741,440.692 170.172,445.89C96.87,470.362 159.909,551.876 206.841,553.968Z" style="fill:rgb(13,91,114);"/>
            </g>
            <g id="Torso" transform="matrix(1.13664,0.0472174,-0.04286,1.03175,828.085,205.35)">
                <path d="M272.852,287.307C268.506,265.644 236.843,250.484 215.303,261.033C211.655,262.819 195.9,299.034 193.862,340.489C192.725,363.612 207.657,388.046 202.933,409.814C195.629,443.468 183.852,479.699 223.874,484.733C249.239,487.923 291.57,460.954 295.114,450.317C293.803,420.059 295.789,375.797 289.407,337.094C284.058,304.647 273.682,285.227 272.852,287.307Z" style="fill:rgb(253,164,44);"/>
            </g>
            <g transform="matrix(0.0499902,1.06618,-1.06618,0.0499902,1702.58,-532.285)">
                <g id="Shirt" transform="matrix(0.20154,0.0897233,-0.330208,0.741725,993.851,402.399)">
                    <path d="M605.386,250.799C605.386,242.185 579.647,235.191 547.944,235.191L304.394,235.191C172.381,235.778 176.6,298.186 304.394,297.623L547.944,297.623C579.647,297.623 605.386,290.63 605.386,282.015L605.386,250.799Z" style="fill:rgb(248,135,39);"/>
                </g>
                <g transform="matrix(0.768423,0,0,0.795876,775.946,401.148)">
                    <path d="M324.783,282.533C353.247,295.105 391.677,310.617 399.921,318.915C412.775,349.246 418.402,370.995 392.009,378.651C390.142,379.195 388.134,379.061 386.364,378.273C371.648,371.737 299.391,339.569 299.391,339.569C307.262,343.072 316.495,339.527 319.998,331.658L332.694,303.14C336.197,295.27 332.653,286.037 324.783,282.533Z" style="fill:rgb(254,182,161);"/>
                </g>
                <g transform="matrix(0.607723,-0.0391076,0.0503475,0.782389,843.773,432.857)">
                    <path d="M324.783,282.533L553.467,384.341C587.604,398.538 567.29,457.641 528.075,441.376L299.391,339.569C307.262,343.072 316.495,339.527 319.998,331.658L332.694,303.14C336.197,295.27 332.653,286.037 324.783,282.533Z" style="fill:rgb(254,182,161);"/>
                </g>
            </g>
        </g>
    </g>
</svg>
