<?xml version="1.0" encoding="UTF-8" standalone="no"?>
<!DOCTYPE svg PUBLIC "-//W3C//DTD SVG 1.1//EN" "http://www.w3.org/Graphics/SVG/1.1/DTD/svg11.dtd">
<svg width="100%" height="100%" viewBox="0 0 639 639" version="1.1" xmlns="http://www.w3.org/2000/svg" xmlns:xlink="http://www.w3.org/1999/xlink" xml:space="preserve" xmlns:serif="http://www.serif.com/" style="fill-rule:evenodd;clip-rule:evenodd;stroke-linejoin:round;stroke-miterlimit:2;">
    <g transform="matrix(1,0,0,1,-1279.09,-55.1821)">
       <!--  <g transform="matrix(0.979083,0,0,0.979083,-32.3726,-553.538)">
            <circle cx="1665.54" cy="947.78" r="326.055" style="fill:rgb(254,215,102);"/>
        </g> -->
        <g id="Step-Forward-Stretch" serif:id="Step Forward Stretch" transform="matrix(1,0,0,1,445.077,-508.697)">
            <g id="Head" transform="matrix(0.811907,0,0,0.811907,944.919,510.747)">
                <circle cx="330.943" cy="180.242" r="59.269" style="fill:rgb(254,182,161);"/>
            </g>
            <g id="Legs" transform="matrix(0.730125,0.82641,-0.95134,0.840499,1274.99,-810.474)">
                <path d="M1169.7,972.889C1174.27,987.44 1177.59,998.581 1177.59,998.581C1193.15,1042.14 1200.18,1048.52 1214.67,1062.27C1217.02,1064.5 1226.5,1068.9 1234.57,1065.39C1248.41,1059.38 1259.52,1059.87 1254.68,1077.64C1253.02,1088.01 1192.94,1116.77 1188.29,1107.59C1185.06,1101.24 1169.24,1060.87 1142.44,1027.83C1131.98,1014.95 1126.37,986.352 1125.41,985.203C1119.15,977.749 1127.59,950.243 1169.7,972.889Z" style="fill:rgb(253,171,146);"/>
            </g>
            <g id="Legs1" serif:id="Legs" transform="matrix(1.04038,0,0,1.10721,-45.3107,-106.493)">
                <path d="M1169.88,973.997C1174.44,988.548 1177.59,998.581 1177.59,998.581C1193.15,1042.14 1200.18,1048.52 1214.67,1062.27C1217.02,1064.5 1226.5,1068.9 1234.57,1065.39C1248.41,1059.38 1259.52,1059.87 1254.68,1077.64C1253.02,1088.01 1192.94,1116.77 1188.29,1107.59C1185.06,1101.24 1169.24,1060.87 1142.44,1027.83C1131.98,1014.95 1124.66,983.901 1125.41,985.203C1126.63,987.333 1151.23,981.442 1169.88,973.997Z" style="fill:rgb(254,182,161);"/>
            </g>
            <g id="Pants" transform="matrix(0.423477,0.664981,-0.567653,0.361496,1302.58,569.015)">
                <path d="M206.841,553.968C251.192,555.874 304.739,553.156 324.565,554.249C329.766,554.536 355.53,454.931 340.714,451.612C329.203,449.034 321.319,447.054 305.94,444.602C291.202,442.253 286.296,440.124 276.588,434.214C257.796,422.772 240.74,427.285 225.96,432.427C221.315,434.006 216.534,434.973 211.706,435.308C197.052,436.268 183.868,441.317 170.172,445.89C96.87,470.362 159.909,551.876 206.841,553.968Z" style="fill:rgb(13,91,114);"/>
            </g>
            <g id="Pants1" serif:id="Pants" transform="matrix(1,0,0,1,-0.394892,0.113249)">
                <path d="M1129.48,850.392C1137.01,848.847 1145.56,851.355 1154.51,860.107C1161.78,867.225 1169.22,873.802 1173.93,883.311C1174.01,883.475 1174.09,883.638 1174.18,883.801C1179.43,893.807 1183.93,904.122 1187.54,914.931C1189.78,921.605 1190.34,925.925 1193.13,934.735C1196.04,943.929 1197.12,948.849 1198.88,955.942C1199.52,958.528 1194.9,961.517 1187.91,964.406C1190.15,962.438 1191.19,960.545 1190.51,958.839C1187.1,950.252 1184.88,944.294 1179.76,933.181C1174.86,922.532 1173.99,918.499 1173.23,909.907C1171.77,893.275 1161.98,883.564 1152.8,875.595C1149.94,873.077 1147.37,870.247 1145.13,867.158C1140.52,860.738 1135.12,855.465 1129.48,850.392Z" style="fill:rgb(13,84,114);"/>
            </g>
            <g id="Shirt" transform="matrix(-0.00430293,0.220568,-0.811753,-0.015836,1422.63,672.761)">
                <path d="M605.386,250.799C605.386,242.185 579.647,235.191 547.944,235.191L304.394,235.191C172.381,235.778 176.6,298.186 304.394,297.623L547.944,297.623C579.647,297.623 605.386,290.63 605.386,282.015L605.386,250.799Z" style="fill:rgb(248,135,39);"/>
            </g>
            <g id="Torso" transform="matrix(0.918912,0.358035,-0.324995,0.834113,1049.54,382.933)">
                <path d="M272.852,287.307C268.506,265.644 232.464,282.643 204.793,279.551C198.601,278.859 185.432,349.973 194.526,424.556C199.489,465.254 181.704,512.548 199.681,515.233L241.314,489.01C256.133,481.057 278.58,456.904 280.219,450.157C269.634,418.647 285.217,374.37 289.407,337.094C293.081,304.415 273.682,285.227 272.852,287.307Z" style="fill:rgb(253,164,44);"/>
            </g>
            <g transform="matrix(0.77291,0.0575468,-0.0749874,1.00715,338.528,-76.7976)">
                <path d="M1181,794.187C1182.94,798.538 1186.03,801.725 1191.1,801.824L1216.44,802.318C1219.51,802.378 1222.35,801.339 1224.58,799.562C1209.34,827.915 1150.52,913.351 1150.52,913.351C1138.31,932.474 1098.32,915.778 1112.31,893.806C1134.96,860.475 1156.65,826.351 1181,794.187Z" style="fill:rgb(254,182,161);"/>
            </g>
            <g transform="matrix(0.517137,-0.577295,0.752255,0.673865,-165.604,937.545)">
                <path d="M1181,794.187C1182.94,798.538 1186.03,801.725 1191.1,801.824L1216.44,802.318C1219.51,802.378 1222.35,801.339 1224.58,799.562C1209.34,827.915 1150.52,913.351 1150.52,913.351C1138.31,932.474 1098.32,915.778 1112.31,893.806C1134.96,860.475 1156.65,826.351 1181,794.187Z" style="fill:rgb(254,182,161);"/>
            </g>
            <g transform="matrix(0.763552,0.30286,-0.363594,0.916671,522.142,-391.215)">
                <path d="M1181,794.187C1182.94,798.538 1186.03,801.725 1191.1,801.824L1216.44,802.318C1219.51,802.378 1222.35,801.339 1224.58,799.562C1209.34,827.915 1150.52,913.351 1150.52,913.351C1138.31,932.474 1098.32,915.778 1112.31,893.806C1134.96,860.475 1156.65,826.351 1181,794.187Z" style="fill:rgb(254,182,161);"/>
            </g>
            <g id="Shirt1" serif:id="Shirt" transform="matrix(-0.190315,0.111575,-0.410628,-0.700413,1314.76,867.174)">
                <path d="M605.386,250.799C605.386,242.185 579.647,235.191 547.944,235.191L304.394,235.191C172.381,235.778 176.6,298.186 304.394,297.623L547.944,297.623C579.647,297.623 605.386,290.63 605.386,282.015L605.386,250.799Z" style="fill:rgb(248,135,39);"/>
            </g>
        </g>
    </g>
</svg>
